<mxfile host="" modified="2020-06-02T11:11:14.798Z" agent="5.0 (Windows NT 10.0; Win64; x64) AppleWebKit/537.36 (KHTML, like Gecko) Code/1.45.1 Chrome/78.0.3904.130 Electron/7.2.4 Safari/537.36" etag="sgcUcZQIgTn3XM7BlzkM" version="13.1.3">
    <diagram id="262uTLk54zTu8b4L3Day" name="Page-1">
        <mxGraphModel dx="1723" dy="1162" grid="1" gridSize="10" guides="1" tooltips="1" connect="1" arrows="1" fold="1" page="1" pageScale="1" pageWidth="827" pageHeight="1169" math="0" shadow="0">
            <root>
                <mxCell id="0"/>
                <mxCell id="1" parent="0"/>
                <mxCell id="2YxPPeIQwJ41rNtLZptv-27" style="edgeStyle=orthogonalEdgeStyle;rounded=0;orthogonalLoop=1;jettySize=auto;html=1;exitX=0.5;exitY=0;exitDx=0;exitDy=0;entryX=0.5;entryY=1;entryDx=0;entryDy=0;fontSize=16;" parent="1" source="2YxPPeIQwJ41rNtLZptv-1" target="2YxPPeIQwJ41rNtLZptv-3" edge="1">
                    <mxGeometry relative="1" as="geometry"/>
                </mxCell>
                <mxCell id="2YxPPeIQwJ41rNtLZptv-1" value="A1" style="ellipse;whiteSpace=wrap;html=1;aspect=fixed;fillColor=#d5e8d4;strokeColor=#82b366;fontSize=16;" parent="1" vertex="1">
                    <mxGeometry x="254" y="376" width="40" height="40" as="geometry"/>
                </mxCell>
                <mxCell id="2YxPPeIQwJ41rNtLZptv-28" style="edgeStyle=orthogonalEdgeStyle;rounded=0;orthogonalLoop=1;jettySize=auto;html=1;exitX=0.5;exitY=0;exitDx=0;exitDy=0;entryX=0.5;entryY=1;entryDx=0;entryDy=0;fontSize=16;" parent="1" source="2YxPPeIQwJ41rNtLZptv-3" target="2YxPPeIQwJ41rNtLZptv-4" edge="1">
                    <mxGeometry relative="1" as="geometry"/>
                </mxCell>
                <mxCell id="2YxPPeIQwJ41rNtLZptv-3" value="B1" style="ellipse;whiteSpace=wrap;html=1;aspect=fixed;fillColor=#fff2cc;strokeColor=#d6b656;fontSize=16;" parent="1" vertex="1">
                    <mxGeometry x="254" y="306" width="40" height="40" as="geometry"/>
                </mxCell>
                <mxCell id="2YxPPeIQwJ41rNtLZptv-29" style="edgeStyle=orthogonalEdgeStyle;rounded=0;orthogonalLoop=1;jettySize=auto;html=1;entryX=0.5;entryY=1;entryDx=0;entryDy=0;fontSize=16;" parent="1" source="2YxPPeIQwJ41rNtLZptv-4" target="2YxPPeIQwJ41rNtLZptv-5" edge="1">
                    <mxGeometry relative="1" as="geometry"/>
                </mxCell>
                <mxCell id="2YxPPeIQwJ41rNtLZptv-30" style="edgeStyle=orthogonalEdgeStyle;rounded=0;orthogonalLoop=1;jettySize=auto;html=1;exitX=1;exitY=0.5;exitDx=0;exitDy=0;entryX=0.5;entryY=1;entryDx=0;entryDy=0;fontSize=16;" parent="1" source="2YxPPeIQwJ41rNtLZptv-4" target="2YxPPeIQwJ41rNtLZptv-6" edge="1">
                    <mxGeometry relative="1" as="geometry"/>
                </mxCell>
                <mxCell id="2YxPPeIQwJ41rNtLZptv-4" value="A2" style="ellipse;whiteSpace=wrap;html=1;aspect=fixed;fillColor=#d5e8d4;strokeColor=#82b366;fontSize=16;" parent="1" vertex="1">
                    <mxGeometry x="254" y="236" width="40" height="40" as="geometry"/>
                </mxCell>
                <mxCell id="2YxPPeIQwJ41rNtLZptv-31" style="edgeStyle=orthogonalEdgeStyle;rounded=0;orthogonalLoop=1;jettySize=auto;html=1;exitX=0.5;exitY=0;exitDx=0;exitDy=0;entryX=0.5;entryY=1;entryDx=0;entryDy=0;fontSize=16;" parent="1" source="2YxPPeIQwJ41rNtLZptv-5" target="2YxPPeIQwJ41rNtLZptv-7" edge="1">
                    <mxGeometry relative="1" as="geometry"/>
                </mxCell>
                <mxCell id="2YxPPeIQwJ41rNtLZptv-5" value="A3" style="ellipse;whiteSpace=wrap;html=1;aspect=fixed;fillColor=#d5e8d4;strokeColor=#82b366;fontSize=16;" parent="1" vertex="1">
                    <mxGeometry x="204" y="176" width="40" height="40" as="geometry"/>
                </mxCell>
                <mxCell id="2YxPPeIQwJ41rNtLZptv-32" style="edgeStyle=orthogonalEdgeStyle;rounded=0;orthogonalLoop=1;jettySize=auto;html=1;exitX=0.5;exitY=0;exitDx=0;exitDy=0;entryX=0.5;entryY=1;entryDx=0;entryDy=0;fontSize=16;" parent="1" source="2YxPPeIQwJ41rNtLZptv-6" target="2YxPPeIQwJ41rNtLZptv-8" edge="1">
                    <mxGeometry relative="1" as="geometry"/>
                </mxCell>
                <mxCell id="2YxPPeIQwJ41rNtLZptv-6" value="B2" style="ellipse;whiteSpace=wrap;html=1;aspect=fixed;fillColor=#fff2cc;strokeColor=#d6b656;fontSize=16;" parent="1" vertex="1">
                    <mxGeometry x="304" y="176" width="40" height="40" as="geometry"/>
                </mxCell>
                <mxCell id="2YxPPeIQwJ41rNtLZptv-7" value="A4" style="ellipse;whiteSpace=wrap;html=1;aspect=fixed;fillColor=#d5e8d4;strokeColor=#82b366;fontSize=16;" parent="1" vertex="1">
                    <mxGeometry x="204" y="106" width="40" height="40" as="geometry"/>
                </mxCell>
                <mxCell id="2YxPPeIQwJ41rNtLZptv-8" value="B3" style="ellipse;whiteSpace=wrap;html=1;aspect=fixed;fillColor=#fff2cc;strokeColor=#d6b656;fontSize=16;" parent="1" vertex="1">
                    <mxGeometry x="304" y="106" width="40" height="40" as="geometry"/>
                </mxCell>
                <mxCell id="2YxPPeIQwJ41rNtLZptv-25" style="edgeStyle=orthogonalEdgeStyle;rounded=0;orthogonalLoop=1;jettySize=auto;html=1;entryX=0.5;entryY=1;entryDx=0;entryDy=0;fontSize=16;" parent="1" source="2YxPPeIQwJ41rNtLZptv-10" target="2YxPPeIQwJ41rNtLZptv-11" edge="1">
                    <mxGeometry relative="1" as="geometry"/>
                </mxCell>
                <mxCell id="2YxPPeIQwJ41rNtLZptv-10" value="A1" style="ellipse;whiteSpace=wrap;html=1;aspect=fixed;fillColor=#d5e8d4;strokeColor=#82b366;fontSize=16;" parent="1" vertex="1">
                    <mxGeometry x="84" y="376" width="40" height="40" as="geometry"/>
                </mxCell>
                <mxCell id="2YxPPeIQwJ41rNtLZptv-26" style="edgeStyle=orthogonalEdgeStyle;rounded=0;orthogonalLoop=1;jettySize=auto;html=1;exitX=0.5;exitY=0;exitDx=0;exitDy=0;entryX=0.5;entryY=1;entryDx=0;entryDy=0;fontSize=16;" parent="1" source="2YxPPeIQwJ41rNtLZptv-11" target="2YxPPeIQwJ41rNtLZptv-12" edge="1">
                    <mxGeometry relative="1" as="geometry"/>
                </mxCell>
                <mxCell id="2YxPPeIQwJ41rNtLZptv-11" value="B1" style="ellipse;whiteSpace=wrap;html=1;aspect=fixed;fillColor=#fff2cc;strokeColor=#d6b656;fontSize=16;" parent="1" vertex="1">
                    <mxGeometry x="84" y="306" width="40" height="40" as="geometry"/>
                </mxCell>
                <mxCell id="2YxPPeIQwJ41rNtLZptv-12" value="A2" style="ellipse;whiteSpace=wrap;html=1;aspect=fixed;fillColor=#d5e8d4;strokeColor=#82b366;fontSize=16;" parent="1" vertex="1">
                    <mxGeometry x="84" y="236" width="40" height="40" as="geometry"/>
                </mxCell>
                <mxCell id="2YxPPeIQwJ41rNtLZptv-13" value="" style="shape=image;html=1;verticalAlign=top;verticalLabelPosition=bottom;labelBackgroundColor=#ffffff;imageAspect=0;aspect=fixed;image=https://cdn0.iconfinder.com/data/icons/zondicons/20/dots-horizontal-triple-128.png;fontSize=16;" parent="1" vertex="1">
                    <mxGeometry x="80" y="438" width="48" height="48" as="geometry"/>
                </mxCell>
                <mxCell id="2YxPPeIQwJ41rNtLZptv-14" value="" style="shape=image;html=1;verticalAlign=top;verticalLabelPosition=bottom;labelBackgroundColor=#ffffff;imageAspect=0;aspect=fixed;image=https://cdn0.iconfinder.com/data/icons/zondicons/20/dots-horizontal-triple-128.png;fontSize=16;" parent="1" vertex="1">
                    <mxGeometry x="250" y="426" width="48" height="48" as="geometry"/>
                </mxCell>
                <mxCell id="2YxPPeIQwJ41rNtLZptv-33" style="edgeStyle=orthogonalEdgeStyle;rounded=0;orthogonalLoop=1;jettySize=auto;html=1;exitX=0.5;exitY=0;exitDx=0;exitDy=0;entryX=0.5;entryY=1;entryDx=0;entryDy=0;fontSize=16;" parent="1" source="2YxPPeIQwJ41rNtLZptv-15" target="2YxPPeIQwJ41rNtLZptv-16" edge="1">
                    <mxGeometry relative="1" as="geometry"/>
                </mxCell>
                <mxCell id="2YxPPeIQwJ41rNtLZptv-15" value="A1" style="ellipse;whiteSpace=wrap;html=1;aspect=fixed;fillColor=#d5e8d4;strokeColor=#82b366;fontSize=16;" parent="1" vertex="1">
                    <mxGeometry x="454" y="376" width="40" height="40" as="geometry"/>
                </mxCell>
                <mxCell id="2YxPPeIQwJ41rNtLZptv-34" style="edgeStyle=orthogonalEdgeStyle;rounded=0;orthogonalLoop=1;jettySize=auto;html=1;exitX=0.5;exitY=0;exitDx=0;exitDy=0;entryX=0.5;entryY=1;entryDx=0;entryDy=0;fontSize=16;" parent="1" source="2YxPPeIQwJ41rNtLZptv-16" target="2YxPPeIQwJ41rNtLZptv-17" edge="1">
                    <mxGeometry relative="1" as="geometry"/>
                </mxCell>
                <mxCell id="2YxPPeIQwJ41rNtLZptv-16" value="B1" style="ellipse;whiteSpace=wrap;html=1;aspect=fixed;fillColor=#fff2cc;strokeColor=#d6b656;fontSize=16;" parent="1" vertex="1">
                    <mxGeometry x="454" y="306" width="40" height="40" as="geometry"/>
                </mxCell>
                <mxCell id="2YxPPeIQwJ41rNtLZptv-35" style="edgeStyle=orthogonalEdgeStyle;rounded=0;orthogonalLoop=1;jettySize=auto;html=1;exitX=0;exitY=0.5;exitDx=0;exitDy=0;entryX=0.5;entryY=1;entryDx=0;entryDy=0;fontSize=16;" parent="1" source="2YxPPeIQwJ41rNtLZptv-17" target="2YxPPeIQwJ41rNtLZptv-18" edge="1">
                    <mxGeometry relative="1" as="geometry"/>
                </mxCell>
                <mxCell id="2YxPPeIQwJ41rNtLZptv-36" style="edgeStyle=orthogonalEdgeStyle;rounded=0;orthogonalLoop=1;jettySize=auto;html=1;exitX=1;exitY=0.5;exitDx=0;exitDy=0;entryX=0.5;entryY=1;entryDx=0;entryDy=0;fontSize=16;" parent="1" source="2YxPPeIQwJ41rNtLZptv-17" target="2YxPPeIQwJ41rNtLZptv-19" edge="1">
                    <mxGeometry relative="1" as="geometry"/>
                </mxCell>
                <mxCell id="2YxPPeIQwJ41rNtLZptv-17" value="A2" style="ellipse;whiteSpace=wrap;html=1;aspect=fixed;fillColor=#d5e8d4;strokeColor=#82b366;fontSize=16;" parent="1" vertex="1">
                    <mxGeometry x="454" y="236" width="40" height="40" as="geometry"/>
                </mxCell>
                <mxCell id="2YxPPeIQwJ41rNtLZptv-38" style="edgeStyle=orthogonalEdgeStyle;rounded=0;orthogonalLoop=1;jettySize=auto;html=1;exitX=0.5;exitY=0;exitDx=0;exitDy=0;entryX=0.5;entryY=1;entryDx=0;entryDy=0;fontSize=16;" parent="1" source="2YxPPeIQwJ41rNtLZptv-18" target="2YxPPeIQwJ41rNtLZptv-20" edge="1">
                    <mxGeometry relative="1" as="geometry"/>
                </mxCell>
                <mxCell id="2YxPPeIQwJ41rNtLZptv-18" value="A3" style="ellipse;whiteSpace=wrap;html=1;aspect=fixed;fillColor=#d5e8d4;strokeColor=#82b366;fontSize=16;" parent="1" vertex="1">
                    <mxGeometry x="404" y="176" width="40" height="40" as="geometry"/>
                </mxCell>
                <mxCell id="2YxPPeIQwJ41rNtLZptv-37" style="edgeStyle=orthogonalEdgeStyle;rounded=0;orthogonalLoop=1;jettySize=auto;html=1;exitX=0.5;exitY=0;exitDx=0;exitDy=0;entryX=0.5;entryY=1;entryDx=0;entryDy=0;fontSize=16;" parent="1" source="2YxPPeIQwJ41rNtLZptv-19" target="2YxPPeIQwJ41rNtLZptv-21" edge="1">
                    <mxGeometry relative="1" as="geometry"/>
                </mxCell>
                <mxCell id="2YxPPeIQwJ41rNtLZptv-19" value="B2" style="ellipse;whiteSpace=wrap;html=1;aspect=fixed;fillColor=#fff2cc;strokeColor=#d6b656;fontSize=16;" parent="1" vertex="1">
                    <mxGeometry x="504" y="176" width="40" height="40" as="geometry"/>
                </mxCell>
                <mxCell id="2YxPPeIQwJ41rNtLZptv-39" style="edgeStyle=orthogonalEdgeStyle;rounded=0;orthogonalLoop=1;jettySize=auto;html=1;exitX=0.5;exitY=0;exitDx=0;exitDy=0;entryX=0.5;entryY=1;entryDx=0;entryDy=0;fontSize=16;" parent="1" source="2YxPPeIQwJ41rNtLZptv-20" target="2YxPPeIQwJ41rNtLZptv-24" edge="1">
                    <mxGeometry relative="1" as="geometry"/>
                </mxCell>
                <mxCell id="2YxPPeIQwJ41rNtLZptv-20" value="A4" style="ellipse;whiteSpace=wrap;html=1;aspect=fixed;fillColor=#d5e8d4;strokeColor=#82b366;fontSize=16;" parent="1" vertex="1">
                    <mxGeometry x="404" y="106" width="40" height="40" as="geometry"/>
                </mxCell>
                <mxCell id="2YxPPeIQwJ41rNtLZptv-21" value="B3" style="ellipse;whiteSpace=wrap;html=1;aspect=fixed;fillColor=#fff2cc;strokeColor=#d6b656;fontSize=16;" parent="1" vertex="1">
                    <mxGeometry x="504" y="106" width="40" height="40" as="geometry"/>
                </mxCell>
                <mxCell id="2YxPPeIQwJ41rNtLZptv-22" value="" style="shape=image;html=1;verticalAlign=top;verticalLabelPosition=bottom;labelBackgroundColor=#ffffff;imageAspect=0;aspect=fixed;image=https://cdn0.iconfinder.com/data/icons/zondicons/20/dots-horizontal-triple-128.png;fontSize=16;" parent="1" vertex="1">
                    <mxGeometry x="450" y="426" width="48" height="48" as="geometry"/>
                </mxCell>
                <mxCell id="2YxPPeIQwJ41rNtLZptv-23" value="" style="html=1;verticalLabelPosition=bottom;labelBackgroundColor=#ffffff;verticalAlign=top;shadow=0;dashed=0;strokeWidth=2;shape=mxgraph.ios7.misc.more;strokeColor=#a0a0a0;fontSize=16;" parent="1" vertex="1">
                    <mxGeometry x="259" y="176" width="30" height="40" as="geometry"/>
                </mxCell>
                <mxCell id="2YxPPeIQwJ41rNtLZptv-24" value="B2,B3" style="ellipse;whiteSpace=wrap;html=1;aspect=fixed;fillColor=#fff2cc;strokeColor=#d6b656;fontSize=16;" parent="1" vertex="1">
                    <mxGeometry x="454" y="20" width="40" height="40" as="geometry"/>
                </mxCell>
                <mxCell id="2YxPPeIQwJ41rNtLZptv-40" value="" style="shape=flexArrow;endArrow=classic;html=1;endWidth=40;endSize=10.73;width=10;fillColor=#f5f5f5;strokeColor=#666666;fontSize=16;" parent="1" edge="1">
                    <mxGeometry width="50" height="50" relative="1" as="geometry">
                        <mxPoint x="144" y="286" as="sourcePoint"/>
                        <mxPoint x="224" y="286" as="targetPoint"/>
                    </mxGeometry>
                </mxCell>
                <mxCell id="2YxPPeIQwJ41rNtLZptv-41" value="" style="shape=flexArrow;endArrow=classic;html=1;endWidth=40;endSize=10.73;width=10;fillColor=#f5f5f5;strokeColor=#666666;fontSize=16;" parent="1" edge="1">
                    <mxGeometry width="50" height="50" relative="1" as="geometry">
                        <mxPoint x="334" y="294" as="sourcePoint"/>
                        <mxPoint x="414" y="294" as="targetPoint"/>
                    </mxGeometry>
                </mxCell>
                <mxCell id="2YxPPeIQwJ41rNtLZptv-42" value="" style="ellipse;whiteSpace=wrap;html=1;aspect=fixed;fillColor=#d5e8d4;strokeColor=#82b366;fontSize=16;" parent="1" vertex="1">
                    <mxGeometry x="158" y="496" width="40" height="40" as="geometry"/>
                </mxCell>
                <mxCell id="2YxPPeIQwJ41rNtLZptv-43" value="Node A" style="text;html=1;strokeColor=none;fillColor=none;align=center;verticalAlign=middle;whiteSpace=wrap;rounded=0;fontSize=16;" parent="1" vertex="1">
                    <mxGeometry x="204" y="506" width="70" height="20" as="geometry"/>
                </mxCell>
                <mxCell id="2YxPPeIQwJ41rNtLZptv-44" value="" style="ellipse;whiteSpace=wrap;html=1;aspect=fixed;fillColor=#fff2cc;strokeColor=#d6b656;fontSize=16;" parent="1" vertex="1">
                    <mxGeometry x="358" y="496" width="40" height="40" as="geometry"/>
                </mxCell>
                <mxCell id="2YxPPeIQwJ41rNtLZptv-45" value="Node B" style="text;html=1;strokeColor=none;fillColor=none;align=center;verticalAlign=middle;whiteSpace=wrap;rounded=0;fontSize=16;" parent="1" vertex="1">
                    <mxGeometry x="404" y="506" width="70" height="20" as="geometry"/>
                </mxCell>
            </root>
        </mxGraphModel>
    </diagram>
</mxfile>